<mxfile host="app.diagrams.net" modified="2024-02-29T22:53:27.167Z" agent="Mozilla/5.0 (Macintosh; Intel Mac OS X 10_15_7) AppleWebKit/537.36 (KHTML, like Gecko) Chrome/122.0.0.0 Safari/537.36" etag="emgAjLlYzt_-IDl1GoNR" version="23.1.7" type="github" pages="3">
  <diagram name="Page-1" id="sUV660QRLb9GWtnvWiSY">
    <mxGraphModel dx="1080" dy="615" grid="1" gridSize="10" guides="1" tooltips="1" connect="1" arrows="1" fold="1" page="1" pageScale="1" pageWidth="1654" pageHeight="1169" math="0" shadow="0">
      <root>
        <mxCell id="0" />
        <mxCell id="1" parent="0" />
        <mxCell id="U2AByLSO6bJXmJ2jfOXi-1" value="" style="rounded=0;whiteSpace=wrap;html=1;" parent="1" vertex="1">
          <mxGeometry x="400" y="20" width="640" height="1170" as="geometry" />
        </mxCell>
        <mxCell id="YQ2VtmDsd7B6_WzJCYEh-53" value="" style="html=1;whiteSpace=wrap;" parent="1" vertex="1">
          <mxGeometry x="440" y="1030" width="480" height="107" as="geometry" />
        </mxCell>
        <mxCell id="YQ2VtmDsd7B6_WzJCYEh-41" value="" style="html=1;whiteSpace=wrap;" parent="1" vertex="1">
          <mxGeometry x="440" y="880" width="500" height="126" as="geometry" />
        </mxCell>
        <mxCell id="YQ2VtmDsd7B6_WzJCYEh-29" value="" style="html=1;whiteSpace=wrap;" parent="1" vertex="1">
          <mxGeometry x="479" y="750" width="341" height="110" as="geometry" />
        </mxCell>
        <mxCell id="YQ2VtmDsd7B6_WzJCYEh-20" value="" style="html=1;whiteSpace=wrap;" parent="1" vertex="1">
          <mxGeometry x="472" y="545" width="340" height="180" as="geometry" />
        </mxCell>
        <mxCell id="YQ2VtmDsd7B6_WzJCYEh-18" value="" style="html=1;whiteSpace=wrap;" parent="1" vertex="1">
          <mxGeometry x="470" y="384" width="330" height="130" as="geometry" />
        </mxCell>
        <mxCell id="YQ2VtmDsd7B6_WzJCYEh-16" value="" style="html=1;whiteSpace=wrap;" parent="1" vertex="1">
          <mxGeometry x="470" y="60" width="530" height="290" as="geometry" />
        </mxCell>
        <mxCell id="YQ2VtmDsd7B6_WzJCYEh-57" style="rounded=0;orthogonalLoop=1;jettySize=auto;html=1;exitX=0.5;exitY=0.5;exitDx=0;exitDy=0;exitPerimeter=0;entryX=0;entryY=0.5;entryDx=0;entryDy=0;" parent="1" source="YQ2VtmDsd7B6_WzJCYEh-1" target="YQ2VtmDsd7B6_WzJCYEh-16" edge="1">
          <mxGeometry relative="1" as="geometry" />
        </mxCell>
        <mxCell id="YQ2VtmDsd7B6_WzJCYEh-58" style="rounded=0;orthogonalLoop=1;jettySize=auto;html=1;exitX=0.5;exitY=0.5;exitDx=0;exitDy=0;exitPerimeter=0;entryX=0;entryY=0.5;entryDx=0;entryDy=0;" parent="1" source="YQ2VtmDsd7B6_WzJCYEh-1" target="YQ2VtmDsd7B6_WzJCYEh-18" edge="1">
          <mxGeometry relative="1" as="geometry" />
        </mxCell>
        <mxCell id="YQ2VtmDsd7B6_WzJCYEh-59" style="rounded=0;orthogonalLoop=1;jettySize=auto;html=1;exitX=0.5;exitY=0.5;exitDx=0;exitDy=0;exitPerimeter=0;entryX=0;entryY=0.5;entryDx=0;entryDy=0;" parent="1" source="YQ2VtmDsd7B6_WzJCYEh-1" target="YQ2VtmDsd7B6_WzJCYEh-20" edge="1">
          <mxGeometry relative="1" as="geometry" />
        </mxCell>
        <mxCell id="YQ2VtmDsd7B6_WzJCYEh-60" style="rounded=0;orthogonalLoop=1;jettySize=auto;html=1;exitX=0.5;exitY=0.5;exitDx=0;exitDy=0;exitPerimeter=0;entryX=0;entryY=0.5;entryDx=0;entryDy=0;" parent="1" source="YQ2VtmDsd7B6_WzJCYEh-1" target="YQ2VtmDsd7B6_WzJCYEh-29" edge="1">
          <mxGeometry relative="1" as="geometry" />
        </mxCell>
        <mxCell id="YQ2VtmDsd7B6_WzJCYEh-61" style="rounded=0;orthogonalLoop=1;jettySize=auto;html=1;exitX=0.5;exitY=0.5;exitDx=0;exitDy=0;exitPerimeter=0;entryX=0;entryY=0.5;entryDx=0;entryDy=0;" parent="1" source="YQ2VtmDsd7B6_WzJCYEh-1" target="YQ2VtmDsd7B6_WzJCYEh-41" edge="1">
          <mxGeometry relative="1" as="geometry" />
        </mxCell>
        <mxCell id="YQ2VtmDsd7B6_WzJCYEh-1" value="Normal User" style="shape=umlActor;verticalLabelPosition=bottom;verticalAlign=top;html=1;" parent="1" vertex="1">
          <mxGeometry x="170" y="373" width="30" height="60" as="geometry" />
        </mxCell>
        <mxCell id="YQ2VtmDsd7B6_WzJCYEh-62" style="rounded=0;orthogonalLoop=1;jettySize=auto;html=1;exitX=0.5;exitY=0.5;exitDx=0;exitDy=0;exitPerimeter=0;entryX=0;entryY=0.5;entryDx=0;entryDy=0;" parent="1" source="YQ2VtmDsd7B6_WzJCYEh-2" target="YQ2VtmDsd7B6_WzJCYEh-16" edge="1">
          <mxGeometry relative="1" as="geometry" />
        </mxCell>
        <mxCell id="YQ2VtmDsd7B6_WzJCYEh-63" style="rounded=0;orthogonalLoop=1;jettySize=auto;html=1;exitX=0.5;exitY=0.5;exitDx=0;exitDy=0;exitPerimeter=0;entryX=0;entryY=0.5;entryDx=0;entryDy=0;" parent="1" source="YQ2VtmDsd7B6_WzJCYEh-2" target="YQ2VtmDsd7B6_WzJCYEh-18" edge="1">
          <mxGeometry relative="1" as="geometry" />
        </mxCell>
        <mxCell id="YQ2VtmDsd7B6_WzJCYEh-64" style="rounded=0;orthogonalLoop=1;jettySize=auto;html=1;exitX=0.5;exitY=0.5;exitDx=0;exitDy=0;exitPerimeter=0;entryX=0;entryY=0.5;entryDx=0;entryDy=0;" parent="1" source="YQ2VtmDsd7B6_WzJCYEh-2" target="YQ2VtmDsd7B6_WzJCYEh-20" edge="1">
          <mxGeometry relative="1" as="geometry" />
        </mxCell>
        <mxCell id="YQ2VtmDsd7B6_WzJCYEh-65" style="rounded=0;orthogonalLoop=1;jettySize=auto;html=1;exitX=0.5;exitY=0.5;exitDx=0;exitDy=0;exitPerimeter=0;entryX=0;entryY=0.5;entryDx=0;entryDy=0;" parent="1" source="YQ2VtmDsd7B6_WzJCYEh-2" target="YQ2VtmDsd7B6_WzJCYEh-29" edge="1">
          <mxGeometry relative="1" as="geometry" />
        </mxCell>
        <mxCell id="YQ2VtmDsd7B6_WzJCYEh-66" style="rounded=0;orthogonalLoop=1;jettySize=auto;html=1;exitX=0.5;exitY=0.5;exitDx=0;exitDy=0;exitPerimeter=0;entryX=0;entryY=0.5;entryDx=0;entryDy=0;" parent="1" source="YQ2VtmDsd7B6_WzJCYEh-2" target="YQ2VtmDsd7B6_WzJCYEh-41" edge="1">
          <mxGeometry relative="1" as="geometry" />
        </mxCell>
        <mxCell id="YQ2VtmDsd7B6_WzJCYEh-67" style="rounded=0;orthogonalLoop=1;jettySize=auto;html=1;exitX=0.5;exitY=0.5;exitDx=0;exitDy=0;exitPerimeter=0;entryX=0;entryY=0.5;entryDx=0;entryDy=0;" parent="1" source="YQ2VtmDsd7B6_WzJCYEh-2" target="YQ2VtmDsd7B6_WzJCYEh-53" edge="1">
          <mxGeometry relative="1" as="geometry" />
        </mxCell>
        <mxCell id="YQ2VtmDsd7B6_WzJCYEh-2" value="IT User" style="shape=umlActor;verticalLabelPosition=bottom;verticalAlign=top;html=1;" parent="1" vertex="1">
          <mxGeometry x="170" y="585" width="30" height="60" as="geometry" />
        </mxCell>
        <mxCell id="YQ2VtmDsd7B6_WzJCYEh-3" value="Receive message synchronously" style="ellipse;whiteSpace=wrap;html=1;" parent="1" vertex="1">
          <mxGeometry x="490" y="180" width="140" height="70" as="geometry" />
        </mxCell>
        <mxCell id="YQ2VtmDsd7B6_WzJCYEh-4" value="Send message" style="ellipse;whiteSpace=wrap;html=1;" parent="1" vertex="1">
          <mxGeometry x="490" y="100" width="140" height="70" as="geometry" />
        </mxCell>
        <mxCell id="YQ2VtmDsd7B6_WzJCYEh-5" value="Delete message locally" style="ellipse;whiteSpace=wrap;html=1;" parent="1" vertex="1">
          <mxGeometry x="670" y="180" width="140" height="70" as="geometry" />
        </mxCell>
        <mxCell id="YQ2VtmDsd7B6_WzJCYEh-9" value="Initiate a new one-to-one&amp;nbsp; conversation" style="ellipse;whiteSpace=wrap;html=1;" parent="1" vertex="1">
          <mxGeometry x="490" y="424" width="140" height="70" as="geometry" />
        </mxCell>
        <mxCell id="YQ2VtmDsd7B6_WzJCYEh-11" value="Join a group" style="ellipse;whiteSpace=wrap;html=1;" parent="1" vertex="1">
          <mxGeometry x="482" y="565" width="140" height="70" as="geometry" />
        </mxCell>
        <mxCell id="YQ2VtmDsd7B6_WzJCYEh-12" value="Leave a group" style="ellipse;whiteSpace=wrap;html=1;" parent="1" vertex="1">
          <mxGeometry x="632" y="645" width="140" height="70" as="geometry" />
        </mxCell>
        <mxCell id="YQ2VtmDsd7B6_WzJCYEh-13" value="Create a new group" style="ellipse;whiteSpace=wrap;html=1;" parent="1" vertex="1">
          <mxGeometry x="482" y="645" width="140" height="70" as="geometry" />
        </mxCell>
        <mxCell id="YQ2VtmDsd7B6_WzJCYEh-15" value="Pin Message" style="ellipse;whiteSpace=wrap;html=1;" parent="1" vertex="1">
          <mxGeometry x="670" y="260" width="140" height="70" as="geometry" />
        </mxCell>
        <mxCell id="YQ2VtmDsd7B6_WzJCYEh-17" value="&lt;font style=&quot;font-size: 14px;&quot;&gt;Message&lt;/font&gt;" style="text;align=center;fontStyle=1;verticalAlign=middle;spacingLeft=3;spacingRight=3;strokeColor=none;rotatable=0;points=[[0,0.5],[1,0.5]];portConstraint=eastwest;html=1;" parent="1" vertex="1">
          <mxGeometry x="900" y="70" width="80" height="26" as="geometry" />
        </mxCell>
        <mxCell id="YQ2VtmDsd7B6_WzJCYEh-19" value="&lt;span style=&quot;color: rgb(0, 0, 0); font-family: Helvetica; font-size: 12px; font-style: normal; font-variant-ligatures: normal; font-variant-caps: normal; letter-spacing: normal; orphans: 2; text-align: center; text-indent: 0px; text-transform: none; widows: 2; word-spacing: 0px; -webkit-text-stroke-width: 0px; background-color: rgb(251, 251, 251); text-decoration-thickness: initial; text-decoration-style: initial; text-decoration-color: initial; float: none; display: inline !important;&quot;&gt;&lt;b&gt;One-to-One Chat&lt;/b&gt;&lt;/span&gt;" style="text;align=center;fontStyle=0;verticalAlign=middle;spacingLeft=3;spacingRight=3;strokeColor=none;rotatable=0;points=[[0,0.5],[1,0.5]];portConstraint=eastwest;html=1;" parent="1" vertex="1">
          <mxGeometry x="602" y="390" width="80" height="26" as="geometry" />
        </mxCell>
        <mxCell id="YQ2VtmDsd7B6_WzJCYEh-23" value="" style="html=1;whiteSpace=wrap;" parent="1" vertex="1">
          <mxGeometry x="820" y="140" width="160" height="198" as="geometry" />
        </mxCell>
        <mxCell id="YQ2VtmDsd7B6_WzJCYEh-21" value="Group Chat" style="text;align=center;fontStyle=1;verticalAlign=middle;spacingLeft=3;spacingRight=3;strokeColor=none;rotatable=0;points=[[0,0.5],[1,0.5]];portConstraint=eastwest;html=1;" parent="1" vertex="1">
          <mxGeometry x="590" y="545" width="80" height="26" as="geometry" />
        </mxCell>
        <mxCell id="YQ2VtmDsd7B6_WzJCYEh-22" value="Unmute a conversation" style="ellipse;whiteSpace=wrap;html=1;" parent="1" vertex="1">
          <mxGeometry x="830" y="258" width="140" height="70" as="geometry" />
        </mxCell>
        <mxCell id="YQ2VtmDsd7B6_WzJCYEh-24" value="Message Notifications" style="text;align=center;fontStyle=1;verticalAlign=middle;spacingLeft=3;spacingRight=3;strokeColor=none;rotatable=0;points=[[0,0.5],[1,0.5]];portConstraint=eastwest;html=1;" parent="1" vertex="1">
          <mxGeometry x="860" y="144" width="80" height="26" as="geometry" />
        </mxCell>
        <mxCell id="YQ2VtmDsd7B6_WzJCYEh-14" value="Mute a conversation" style="ellipse;whiteSpace=wrap;html=1;" parent="1" vertex="1">
          <mxGeometry x="830" y="180" width="140" height="70" as="geometry" />
        </mxCell>
        <mxCell id="YQ2VtmDsd7B6_WzJCYEh-25" value="Send Group chat invitation" style="ellipse;whiteSpace=wrap;html=1;" parent="1" vertex="1">
          <mxGeometry x="632" y="565" width="140" height="70" as="geometry" />
        </mxCell>
        <mxCell id="YQ2VtmDsd7B6_WzJCYEh-26" value="Receive message asynchronously" style="ellipse;whiteSpace=wrap;html=1;" parent="1" vertex="1">
          <mxGeometry x="490" y="260" width="140" height="70" as="geometry" />
        </mxCell>
        <mxCell id="YQ2VtmDsd7B6_WzJCYEh-27" value="View directory" style="ellipse;whiteSpace=wrap;html=1;" parent="1" vertex="1">
          <mxGeometry x="499" y="781" width="140" height="70" as="geometry" />
        </mxCell>
        <mxCell id="YQ2VtmDsd7B6_WzJCYEh-30" value="Contacts and Profile" style="text;align=center;fontStyle=1;verticalAlign=middle;spacingLeft=3;spacingRight=3;strokeColor=none;rotatable=0;points=[[0,0.5],[1,0.5]];portConstraint=eastwest;html=1;" parent="1" vertex="1">
          <mxGeometry x="622" y="755" width="80" height="26" as="geometry" />
        </mxCell>
        <mxCell id="YQ2VtmDsd7B6_WzJCYEh-33" value="Text Font Setting" style="ellipse;whiteSpace=wrap;html=1;" parent="1" vertex="1">
          <mxGeometry x="620" y="920" width="140" height="70" as="geometry" />
        </mxCell>
        <mxCell id="YQ2VtmDsd7B6_WzJCYEh-40" value="Timestamp On/Off" style="ellipse;whiteSpace=wrap;html=1;" parent="1" vertex="1">
          <mxGeometry x="790" y="920" width="140" height="70" as="geometry" />
        </mxCell>
        <mxCell id="YQ2VtmDsd7B6_WzJCYEh-43" value="App settings" style="text;align=center;fontStyle=1;verticalAlign=middle;spacingLeft=3;spacingRight=3;strokeColor=none;rotatable=0;points=[[0,0.5],[1,0.5]];portConstraint=eastwest;html=1;" parent="1" vertex="1">
          <mxGeometry x="650" y="886" width="80" height="26" as="geometry" />
        </mxCell>
        <mxCell id="YQ2VtmDsd7B6_WzJCYEh-45" value="View All logged messages" style="ellipse;whiteSpace=wrap;html=1;" parent="1" vertex="1">
          <mxGeometry x="450" y="1061" width="140" height="70" as="geometry" />
        </mxCell>
        <mxCell id="YQ2VtmDsd7B6_WzJCYEh-47" value="Create a new user" style="ellipse;whiteSpace=wrap;html=1;" parent="1" vertex="1">
          <mxGeometry x="770" y="1061" width="140" height="70" as="geometry" />
        </mxCell>
        <mxCell id="YQ2VtmDsd7B6_WzJCYEh-49" value="Delete a user" style="ellipse;whiteSpace=wrap;html=1;" parent="1" vertex="1">
          <mxGeometry x="610" y="1061" width="140" height="70" as="geometry" />
        </mxCell>
        <mxCell id="YQ2VtmDsd7B6_WzJCYEh-54" value="IT Privileges" style="text;align=center;fontStyle=1;verticalAlign=middle;spacingLeft=3;spacingRight=3;strokeColor=none;rotatable=0;points=[[0,0.5],[1,0.5]];portConstraint=eastwest;html=1;" parent="1" vertex="1">
          <mxGeometry x="640" y="1030" width="80" height="26" as="geometry" />
        </mxCell>
        <mxCell id="U2AByLSO6bJXmJ2jfOXi-2" value="&lt;font style=&quot;font-size: 14px;&quot;&gt;Client Application&lt;/font&gt;" style="text;html=1;align=center;verticalAlign=middle;whiteSpace=wrap;rounded=0;fontStyle=1" parent="1" vertex="1">
          <mxGeometry x="630" y="20" width="140" height="30" as="geometry" />
        </mxCell>
        <mxCell id="U2AByLSO6bJXmJ2jfOXi-3" value="Sever Application" style="html=1;whiteSpace=wrap;" parent="1" vertex="1">
          <mxGeometry x="1210" y="434" width="110" height="50" as="geometry" />
        </mxCell>
        <mxCell id="U2AByLSO6bJXmJ2jfOXi-6" style="edgeStyle=orthogonalEdgeStyle;rounded=0;orthogonalLoop=1;jettySize=auto;html=1;exitX=0;exitY=0.5;exitDx=0;exitDy=0;entryX=0.997;entryY=0.375;entryDx=0;entryDy=0;entryPerimeter=0;endArrow=none;endFill=0;" parent="1" source="U2AByLSO6bJXmJ2jfOXi-3" target="U2AByLSO6bJXmJ2jfOXi-1" edge="1">
          <mxGeometry relative="1" as="geometry" />
        </mxCell>
      </root>
    </mxGraphModel>
  </diagram>
  <diagram id="76yED_X19V-XeV7wdZsf" name="Page-2">
    <mxGraphModel dx="1080" dy="615" grid="1" gridSize="10" guides="1" tooltips="1" connect="1" arrows="1" fold="1" page="1" pageScale="1" pageWidth="1654" pageHeight="1169" math="0" shadow="0">
      <root>
        <mxCell id="0" />
        <mxCell id="1" parent="0" />
        <mxCell id="WNzf7cn8V8j3igvtet1d-1" value="" style="shape=umlLifeline;perimeter=lifelinePerimeter;whiteSpace=wrap;html=1;container=1;dropTarget=0;collapsible=0;recursiveResize=0;outlineConnect=0;portConstraint=eastwest;newEdgeStyle={&quot;curved&quot;:0,&quot;rounded&quot;:0};participant=umlActor;" parent="1" vertex="1">
          <mxGeometry x="410" y="210" width="20" height="300" as="geometry" />
        </mxCell>
        <mxCell id="WNzf7cn8V8j3igvtet1d-2" value="direct message" style="shape=umlLifeline;perimeter=lifelinePerimeter;whiteSpace=wrap;html=1;container=1;dropTarget=0;collapsible=0;recursiveResize=0;outlineConnect=0;portConstraint=eastwest;newEdgeStyle={&quot;curved&quot;:0,&quot;rounded&quot;:0};" parent="1" vertex="1">
          <mxGeometry x="480" y="210" width="100" height="300" as="geometry" />
        </mxCell>
        <mxCell id="WNzf7cn8V8j3igvtet1d-3" value="group message" style="shape=umlLifeline;perimeter=lifelinePerimeter;whiteSpace=wrap;html=1;container=1;dropTarget=0;collapsible=0;recursiveResize=0;outlineConnect=0;portConstraint=eastwest;newEdgeStyle={&quot;curved&quot;:0,&quot;rounded&quot;:0};" parent="1" vertex="1">
          <mxGeometry x="610" y="210" width="100" height="300" as="geometry" />
        </mxCell>
        <mxCell id="WNzf7cn8V8j3igvtet1d-4" value="app settings" style="shape=umlLifeline;perimeter=lifelinePerimeter;whiteSpace=wrap;html=1;container=1;dropTarget=0;collapsible=0;recursiveResize=0;outlineConnect=0;portConstraint=eastwest;newEdgeStyle={&quot;curved&quot;:0,&quot;rounded&quot;:0};" parent="1" vertex="1">
          <mxGeometry x="750" y="210" width="100" height="300" as="geometry" />
        </mxCell>
        <mxCell id="WNzf7cn8V8j3igvtet1d-5" value="Directory" style="shape=umlLifeline;perimeter=lifelinePerimeter;whiteSpace=wrap;html=1;container=1;dropTarget=0;collapsible=0;recursiveResize=0;outlineConnect=0;portConstraint=eastwest;newEdgeStyle={&quot;curved&quot;:0,&quot;rounded&quot;:0};" parent="1" vertex="1">
          <mxGeometry x="880" y="210" width="100" height="300" as="geometry" />
        </mxCell>
        <mxCell id="WNzf7cn8V8j3igvtet1d-6" value="User" style="text;align=center;fontStyle=1;verticalAlign=middle;spacingLeft=3;spacingRight=3;strokeColor=none;rotatable=0;points=[[0,0.5],[1,0.5]];portConstraint=eastwest;html=1;" parent="1" vertex="1">
          <mxGeometry x="390" y="180" width="80" height="26" as="geometry" />
        </mxCell>
        <mxCell id="V9n1AzZN_ZHZRttG4YIM-1" value="Send direct Message" style="html=1;verticalAlign=bottom;endArrow=block;curved=0;rounded=0;" parent="1" edge="1">
          <mxGeometry width="80" relative="1" as="geometry">
            <mxPoint x="419.75925925925935" y="289.9999999999999" as="sourcePoint" />
            <mxPoint x="529.5" y="289.9999999999999" as="targetPoint" />
          </mxGeometry>
        </mxCell>
        <mxCell id="V9n1AzZN_ZHZRttG4YIM-2" value="View direct Message" style="html=1;verticalAlign=bottom;endArrow=block;curved=0;rounded=0;" parent="1" source="WNzf7cn8V8j3igvtet1d-2" target="WNzf7cn8V8j3igvtet1d-1" edge="1">
          <mxGeometry width="80" relative="1" as="geometry">
            <mxPoint x="510" y="340" as="sourcePoint" />
            <mxPoint x="430" y="340" as="targetPoint" />
            <Array as="points">
              <mxPoint x="480" y="310" />
            </Array>
          </mxGeometry>
        </mxCell>
        <mxCell id="V9n1AzZN_ZHZRttG4YIM-3" value="Send group Message" style="html=1;verticalAlign=bottom;endArrow=block;curved=0;rounded=0;" parent="1" target="WNzf7cn8V8j3igvtet1d-3" edge="1">
          <mxGeometry width="80" relative="1" as="geometry">
            <mxPoint x="419.99925925925936" y="349.6299999999999" as="sourcePoint" />
            <mxPoint x="529.74" y="349.6299999999999" as="targetPoint" />
          </mxGeometry>
        </mxCell>
        <mxCell id="V9n1AzZN_ZHZRttG4YIM-4" value="View group Message" style="html=1;verticalAlign=bottom;endArrow=block;curved=0;rounded=0;" parent="1" source="WNzf7cn8V8j3igvtet1d-3" edge="1">
          <mxGeometry width="80" relative="1" as="geometry">
            <mxPoint x="530.24" y="369.63" as="sourcePoint" />
            <mxPoint x="420.24" y="369.63" as="targetPoint" />
            <Array as="points">
              <mxPoint x="480.24" y="369.63" />
            </Array>
          </mxGeometry>
        </mxCell>
        <mxCell id="V9n1AzZN_ZHZRttG4YIM-5" value="Change App Setting" style="html=1;verticalAlign=bottom;endArrow=block;curved=0;rounded=0;" parent="1" edge="1">
          <mxGeometry width="80" relative="1" as="geometry">
            <mxPoint x="420" y="410" as="sourcePoint" />
            <mxPoint x="799.5" y="410" as="targetPoint" />
          </mxGeometry>
        </mxCell>
        <mxCell id="V9n1AzZN_ZHZRttG4YIM-6" value="Request to view directory" style="html=1;verticalAlign=bottom;endArrow=block;curved=0;rounded=0;" parent="1" target="WNzf7cn8V8j3igvtet1d-5" edge="1">
          <mxGeometry width="80" relative="1" as="geometry">
            <mxPoint x="420" y="450" as="sourcePoint" />
            <mxPoint x="500" y="450" as="targetPoint" />
          </mxGeometry>
        </mxCell>
        <mxCell id="V9n1AzZN_ZHZRttG4YIM-7" value="Return directory" style="html=1;verticalAlign=bottom;endArrow=block;curved=0;rounded=0;" parent="1" edge="1">
          <mxGeometry width="80" relative="1" as="geometry">
            <mxPoint x="929.74" y="469.9999999999999" as="sourcePoint" />
            <mxPoint x="419.99925925925936" y="469.9999999999999" as="targetPoint" />
          </mxGeometry>
        </mxCell>
        <mxCell id="WEP-BiXhZE0mZnWe9B-W-1" value="" style="shape=umlLifeline;perimeter=lifelinePerimeter;whiteSpace=wrap;html=1;container=1;dropTarget=0;collapsible=0;recursiveResize=0;outlineConnect=0;portConstraint=eastwest;newEdgeStyle={&quot;curved&quot;:0,&quot;rounded&quot;:0};participant=umlActor;" parent="1" vertex="1">
          <mxGeometry x="410" y="585" width="20" height="300" as="geometry" />
        </mxCell>
        <mxCell id="WEP-BiXhZE0mZnWe9B-W-2" value="direct message" style="shape=umlLifeline;perimeter=lifelinePerimeter;whiteSpace=wrap;html=1;container=1;dropTarget=0;collapsible=0;recursiveResize=0;outlineConnect=0;portConstraint=eastwest;newEdgeStyle={&quot;curved&quot;:0,&quot;rounded&quot;:0};" parent="1" vertex="1">
          <mxGeometry x="480" y="585" width="100" height="300" as="geometry" />
        </mxCell>
        <mxCell id="WEP-BiXhZE0mZnWe9B-W-3" value="group message" style="shape=umlLifeline;perimeter=lifelinePerimeter;whiteSpace=wrap;html=1;container=1;dropTarget=0;collapsible=0;recursiveResize=0;outlineConnect=0;portConstraint=eastwest;newEdgeStyle={&quot;curved&quot;:0,&quot;rounded&quot;:0};" parent="1" vertex="1">
          <mxGeometry x="610" y="585" width="100" height="300" as="geometry" />
        </mxCell>
        <mxCell id="WEP-BiXhZE0mZnWe9B-W-4" value="app settings" style="shape=umlLifeline;perimeter=lifelinePerimeter;whiteSpace=wrap;html=1;container=1;dropTarget=0;collapsible=0;recursiveResize=0;outlineConnect=0;portConstraint=eastwest;newEdgeStyle={&quot;curved&quot;:0,&quot;rounded&quot;:0};" parent="1" vertex="1">
          <mxGeometry x="750" y="585" width="100" height="300" as="geometry" />
        </mxCell>
        <mxCell id="WEP-BiXhZE0mZnWe9B-W-5" value="Directory" style="shape=umlLifeline;perimeter=lifelinePerimeter;whiteSpace=wrap;html=1;container=1;dropTarget=0;collapsible=0;recursiveResize=0;outlineConnect=0;portConstraint=eastwest;newEdgeStyle={&quot;curved&quot;:0,&quot;rounded&quot;:0};" parent="1" vertex="1">
          <mxGeometry x="880" y="585" width="100" height="300" as="geometry" />
        </mxCell>
        <mxCell id="WEP-BiXhZE0mZnWe9B-W-6" value="Send direct Message" style="html=1;verticalAlign=bottom;endArrow=block;curved=0;rounded=0;" parent="1" edge="1">
          <mxGeometry width="80" relative="1" as="geometry">
            <mxPoint x="419.75925925925935" y="664.9999999999999" as="sourcePoint" />
            <mxPoint x="529.5" y="664.9999999999999" as="targetPoint" />
          </mxGeometry>
        </mxCell>
        <mxCell id="WEP-BiXhZE0mZnWe9B-W-7" value="View direct Message" style="html=1;verticalAlign=bottom;endArrow=block;curved=0;rounded=0;" parent="1" source="WEP-BiXhZE0mZnWe9B-W-2" target="WEP-BiXhZE0mZnWe9B-W-1" edge="1">
          <mxGeometry width="80" relative="1" as="geometry">
            <mxPoint x="510" y="715" as="sourcePoint" />
            <mxPoint x="430" y="715" as="targetPoint" />
            <Array as="points">
              <mxPoint x="480" y="685" />
            </Array>
          </mxGeometry>
        </mxCell>
        <mxCell id="WEP-BiXhZE0mZnWe9B-W-8" value="Send group Message" style="html=1;verticalAlign=bottom;endArrow=block;curved=0;rounded=0;" parent="1" target="WEP-BiXhZE0mZnWe9B-W-3" edge="1">
          <mxGeometry width="80" relative="1" as="geometry">
            <mxPoint x="419.99925925925936" y="724.6299999999999" as="sourcePoint" />
            <mxPoint x="529.74" y="724.6299999999999" as="targetPoint" />
          </mxGeometry>
        </mxCell>
        <mxCell id="WEP-BiXhZE0mZnWe9B-W-9" value="View group Message" style="html=1;verticalAlign=bottom;endArrow=block;curved=0;rounded=0;" parent="1" source="WEP-BiXhZE0mZnWe9B-W-3" edge="1">
          <mxGeometry width="80" relative="1" as="geometry">
            <mxPoint x="530.24" y="744.63" as="sourcePoint" />
            <mxPoint x="420.24" y="744.63" as="targetPoint" />
            <Array as="points">
              <mxPoint x="480.24" y="744.63" />
            </Array>
          </mxGeometry>
        </mxCell>
        <mxCell id="WEP-BiXhZE0mZnWe9B-W-10" value="Change App Setting" style="html=1;verticalAlign=bottom;endArrow=block;curved=0;rounded=0;" parent="1" edge="1">
          <mxGeometry width="80" relative="1" as="geometry">
            <mxPoint x="420" y="785" as="sourcePoint" />
            <mxPoint x="799.5" y="785" as="targetPoint" />
          </mxGeometry>
        </mxCell>
        <mxCell id="WEP-BiXhZE0mZnWe9B-W-11" value="Request to view directory" style="html=1;verticalAlign=bottom;endArrow=block;curved=0;rounded=0;" parent="1" edge="1">
          <mxGeometry width="80" relative="1" as="geometry">
            <mxPoint x="420" y="836" as="sourcePoint" />
            <mxPoint x="929.5" y="836" as="targetPoint" />
          </mxGeometry>
        </mxCell>
        <mxCell id="WEP-BiXhZE0mZnWe9B-W-12" value="Return directory" style="html=1;verticalAlign=bottom;endArrow=block;curved=0;rounded=0;" parent="1" edge="1">
          <mxGeometry width="80" relative="1" as="geometry">
            <mxPoint x="929.74" y="855.9999999999999" as="sourcePoint" />
            <mxPoint x="419.99925925925936" y="855.9999999999999" as="targetPoint" />
          </mxGeometry>
        </mxCell>
        <mxCell id="WEP-BiXhZE0mZnWe9B-W-13" value="Server" style="shape=umlLifeline;perimeter=lifelinePerimeter;whiteSpace=wrap;html=1;container=1;dropTarget=0;collapsible=0;recursiveResize=0;outlineConnect=0;portConstraint=eastwest;newEdgeStyle={&quot;curved&quot;:0,&quot;rounded&quot;:0};" parent="1" vertex="1">
          <mxGeometry x="260" y="585" width="100" height="300" as="geometry" />
        </mxCell>
        <mxCell id="WEP-BiXhZE0mZnWe9B-W-14" value="IT Admin" style="text;align=center;fontStyle=1;verticalAlign=middle;spacingLeft=3;spacingRight=3;strokeColor=none;rotatable=0;points=[[0,0.5],[1,0.5]];portConstraint=eastwest;html=1;" parent="1" vertex="1">
          <mxGeometry x="380" y="559" width="80" height="26" as="geometry" />
        </mxCell>
        <mxCell id="WEP-BiXhZE0mZnWe9B-W-15" value="Respond" style="html=1;verticalAlign=bottom;endArrow=block;curved=0;rounded=0;" parent="1" target="WEP-BiXhZE0mZnWe9B-W-1" edge="1">
          <mxGeometry width="80" relative="1" as="geometry">
            <mxPoint x="310" y="680" as="sourcePoint" />
            <mxPoint x="390" y="680" as="targetPoint" />
          </mxGeometry>
        </mxCell>
        <mxCell id="WEP-BiXhZE0mZnWe9B-W-28" value="Create new User" style="html=1;verticalAlign=bottom;endArrow=block;curved=0;rounded=0;" parent="1" edge="1">
          <mxGeometry width="80" relative="1" as="geometry">
            <mxPoint x="420" y="660" as="sourcePoint" />
            <mxPoint x="309.75925925925924" y="660" as="targetPoint" />
          </mxGeometry>
        </mxCell>
        <mxCell id="WEP-BiXhZE0mZnWe9B-W-29" value="Respond" style="html=1;verticalAlign=bottom;endArrow=block;curved=0;rounded=0;" parent="1" edge="1">
          <mxGeometry width="80" relative="1" as="geometry">
            <mxPoint x="310.24" y="730" as="sourcePoint" />
            <mxPoint x="420.24" y="730" as="targetPoint" />
          </mxGeometry>
        </mxCell>
        <mxCell id="WEP-BiXhZE0mZnWe9B-W-30" value="Remove a User" style="html=1;verticalAlign=bottom;endArrow=block;curved=0;rounded=0;" parent="1" edge="1">
          <mxGeometry width="80" relative="1" as="geometry">
            <mxPoint x="420.24" y="710" as="sourcePoint" />
            <mxPoint x="309.99925925925925" y="710" as="targetPoint" />
          </mxGeometry>
        </mxCell>
        <mxCell id="WEP-BiXhZE0mZnWe9B-W-31" value="Respond" style="html=1;verticalAlign=bottom;endArrow=block;curved=0;rounded=0;" parent="1" target="WEP-BiXhZE0mZnWe9B-W-1" edge="1">
          <mxGeometry width="80" relative="1" as="geometry">
            <mxPoint x="800" y="810" as="sourcePoint" />
            <mxPoint x="720" y="810" as="targetPoint" />
          </mxGeometry>
        </mxCell>
        <mxCell id="WEP-BiXhZE0mZnWe9B-W-32" value="Return System logs" style="html=1;verticalAlign=bottom;endArrow=block;curved=0;rounded=0;" parent="1" edge="1">
          <mxGeometry width="80" relative="1" as="geometry">
            <mxPoint x="310.24" y="790" as="sourcePoint" />
            <mxPoint x="420.24" y="790" as="targetPoint" />
          </mxGeometry>
        </mxCell>
        <mxCell id="WEP-BiXhZE0mZnWe9B-W-33" value="View Logs Request" style="html=1;verticalAlign=bottom;endArrow=block;curved=0;rounded=0;" parent="1" edge="1">
          <mxGeometry width="80" relative="1" as="geometry">
            <mxPoint x="420.24" y="770" as="sourcePoint" />
            <mxPoint x="309.99925925925925" y="770" as="targetPoint" />
          </mxGeometry>
        </mxCell>
      </root>
    </mxGraphModel>
  </diagram>
  <diagram id="tJYpXaFnaVv0csofvb00" name="Page-3">
    <mxGraphModel dx="745" dy="424" grid="1" gridSize="10" guides="1" tooltips="1" connect="1" arrows="1" fold="1" page="1" pageScale="1" pageWidth="1654" pageHeight="1169" math="0" shadow="0">
      <root>
        <mxCell id="0" />
        <mxCell id="1" parent="0" />
        <mxCell id="F14sKOtyyoUPDypCJk7Z-3" value="Client" style="shape=umlLifeline;perimeter=lifelinePerimeter;whiteSpace=wrap;html=1;container=1;dropTarget=0;collapsible=0;recursiveResize=0;outlineConnect=0;portConstraint=eastwest;newEdgeStyle={&quot;curved&quot;:0,&quot;rounded&quot;:0};" vertex="1" parent="1">
          <mxGeometry x="560" y="520" width="100" height="300" as="geometry" />
        </mxCell>
        <mxCell id="F14sKOtyyoUPDypCJk7Z-4" value="Server" style="shape=umlLifeline;perimeter=lifelinePerimeter;whiteSpace=wrap;html=1;container=1;dropTarget=0;collapsible=0;recursiveResize=0;outlineConnect=0;portConstraint=eastwest;newEdgeStyle={&quot;curved&quot;:0,&quot;rounded&quot;:0};" vertex="1" parent="1">
          <mxGeometry x="827" y="520" width="100" height="300" as="geometry" />
        </mxCell>
        <mxCell id="F14sKOtyyoUPDypCJk7Z-5" value="Client Hello" style="html=1;verticalAlign=bottom;endArrow=block;curved=0;rounded=0;" edge="1" parent="1" target="F14sKOtyyoUPDypCJk7Z-4">
          <mxGeometry width="80" relative="1" as="geometry">
            <mxPoint x="610" y="600" as="sourcePoint" />
            <mxPoint x="690" y="600" as="targetPoint" />
          </mxGeometry>
        </mxCell>
        <mxCell id="F14sKOtyyoUPDypCJk7Z-6" value="Username/password" style="html=1;verticalAlign=bottom;endArrow=block;curved=0;rounded=0;" edge="1" parent="1" target="F14sKOtyyoUPDypCJk7Z-4">
          <mxGeometry width="80" relative="1" as="geometry">
            <mxPoint x="610" y="660" as="sourcePoint" />
            <mxPoint x="690" y="660" as="targetPoint" />
          </mxGeometry>
        </mxCell>
        <mxCell id="F14sKOtyyoUPDypCJk7Z-7" value="Server Hello + Login Request" style="html=1;verticalAlign=bottom;endArrow=block;curved=0;rounded=0;" edge="1" parent="1">
          <mxGeometry width="80" relative="1" as="geometry">
            <mxPoint x="877" y="630" as="sourcePoint" />
            <mxPoint x="610" y="630" as="targetPoint" />
          </mxGeometry>
        </mxCell>
        <mxCell id="F14sKOtyyoUPDypCJk7Z-8" value="Login Request (wrong credential, try again)" style="html=1;verticalAlign=bottom;endArrow=block;curved=0;rounded=0;" edge="1" parent="1">
          <mxGeometry x="0.0022" width="80" relative="1" as="geometry">
            <mxPoint x="877" y="690" as="sourcePoint" />
            <mxPoint x="610" y="690" as="targetPoint" />
            <mxPoint as="offset" />
          </mxGeometry>
        </mxCell>
        <mxCell id="oJWnkddR0OJMqSs9m4Yq-7" value="OK (successfully logged in)" style="html=1;verticalAlign=bottom;endArrow=block;curved=0;rounded=0;" edge="1" parent="1">
          <mxGeometry x="0.0022" width="80" relative="1" as="geometry">
            <mxPoint x="877" y="740" as="sourcePoint" />
            <mxPoint x="610" y="740" as="targetPoint" />
            <mxPoint as="offset" />
          </mxGeometry>
        </mxCell>
        <mxCell id="oJWnkddR0OJMqSs9m4Yq-9" value="OR" style="text;align=center;fontStyle=1;verticalAlign=middle;spacingLeft=3;spacingRight=3;strokeColor=none;rotatable=0;points=[[0,0.5],[1,0.5]];portConstraint=eastwest;html=1;" vertex="1" parent="1">
          <mxGeometry x="700" y="700" width="80" height="26" as="geometry" />
        </mxCell>
      </root>
    </mxGraphModel>
  </diagram>
</mxfile>
